<?xml version="1.0" encoding="UTF-8" standalone="no"?>
<!-- Generator: Adobe Illustrator 15.1.0, SVG Export Plug-In . SVG Version: 6.00 Build 0)  -->

<svg
   xmlns:dc="http://purl.org/dc/elements/1.1/"
   xmlns:cc="http://creativecommons.org/ns#"
   xmlns:rdf="http://www.w3.org/1999/02/22-rdf-syntax-ns#"
   xmlns:svg="http://www.w3.org/2000/svg"
   xmlns="http://www.w3.org/2000/svg"
   xmlns:sodipodi="http://sodipodi.sourceforge.net/DTD/sodipodi-0.dtd"
   xmlns:inkscape="http://www.inkscape.org/namespaces/inkscape"
   version="1.1"
   id="Map_1_"
   x="0px"
   y="0px"
   width="1661.6672"
   height="996.66669"
   viewBox="0 0 1661.6672 996.66669"
   enable-background="new 0 0 2000 1200"
   xml:space="preserve"
   sodipodi:docname="map-street.svg"
   inkscape:version="0.92.2 (5c3e80d, 2017-08-06)"><metadata
     id="metadata312"><rdf:RDF><cc:Work
         rdf:about=""><dc:format>image/svg+xml</dc:format><dc:type
           rdf:resource="http://purl.org/dc/dcmitype/StillImage" /></cc:Work></rdf:RDF></metadata><defs
     id="defs310" /><sodipodi:namedview
     pagecolor="#ffffff"
     bordercolor="#666666"
     borderopacity="1"
     objecttolerance="10"
     gridtolerance="10"
     guidetolerance="10"
     inkscape:pageopacity="0"
     inkscape:pageshadow="2"
     inkscape:window-width="1366"
     inkscape:window-height="703"
     id="namedview308"
     showgrid="false"
     inkscape:zoom="0.3"
     inkscape:cx="433.62598"
     inkscape:cy="664.00193"
     inkscape:window-x="-4"
     inkscape:window-y="-4"
     inkscape:window-maximized="1"
     inkscape:current-layer="Grote_weg_1_" /><g
     id="Achtergrond"
     transform="translate(-168.88839,-101.66666)"><rect
       width="1661.1112"
       height="996.66669"
       id="rect2"
       x="169.4444"
       y="101.66666"
       style="fill:#e4e2de;stroke-width:0.8305555" /></g><g
     id="Stadcentrum"
     transform="translate(-168.88839,-101.66666)"><path
       d="m 616.969,361.549 146.993,-64.497 70.497,4.5 10.5,62.997 17.999,-3 12,-77.996 113.994,-34.498 58.498,-9.056 1.5,72.052 109.494,-3 16.499,94.495 41.998,127.494 28.499,-6 11.999,35.998 22.499,20.999 56.997,-6 c 0,0 8.999,118.495 13.499,131.994 4.5,13.499 -1.5,68.997 -17.999,83.996 -16.499,14.999 -65.997,95.995 -65.997,95.995 0,0 -73.497,-37.498 -79.496,-40.498 -5.999,-3 -52.497,-25.498 -73.496,-14.999 -20.999,10.499 -103.494,39.998 -103.494,39.998 L 912.455,960 c 0,0 -116.995,-118.475 -130.494,-137.974 -13.499,-19.499 -35.998,-25.499 -20.999,-76.496 14.999,-50.997 46.497,-112.494 31.498,-131.993 -14.999,-19.499 -83.996,1.5 -83.996,1.5 l -35.998,-3 -137.993,-44.998 53.997,-79.496 62.997,-32.998 14.999,-10.5 3,-22.499 z"
       id="path5"
       inkscape:connector-curvature="0"
       style="fill:#efefef" /></g><g
     id="Spoor_1_"
     transform="translate(-168.88839,-101.66666)"><path
       stroke-miterlimit="10"
       d="m 173.36,209.945 c 0,0 214,364 581,312 0,0 130,-40 183,-59 53,-19 514,-109 592,-128 78,-19 262,-42 299,-43"
       id="path8"
       inkscape:connector-curvature="0"
       style="fill:none;stroke:#a84106;stroke-width:2;stroke-linecap:round;stroke-miterlimit:10;stroke-dasharray:8, 4" /><path
       stroke-miterlimit="10"
       d="m 1825.36,343.945 c 0,0 -190,15 -228,24 -38,9 -490,99 -535,113"
       id="path10"
       inkscape:connector-curvature="0"
       style="fill:none;stroke:#a84106;stroke-width:2;stroke-linecap:round;stroke-miterlimit:10;stroke-dasharray:8, 4" /><path
       stroke-miterlimit="10"
       d="m 1826.36,308.945 c 0,0 -216,21 -387,60 l -452,97 c 0,0 -211,60 -245,64"
       id="path12"
       inkscape:connector-curvature="0"
       style="fill:none;stroke:#a84106;stroke-width:2;stroke-linecap:round;stroke-miterlimit:10;stroke-dasharray:8, 4" /><path
       stroke-miterlimit="10"
       d="m 173.36,224.945 c 0,0 214,364 581,312 0,0 148,-12 201,-31 53,-19 515,-94 593,-113 78,-19 240,-23 277,-24"
       id="path14"
       inkscape:connector-curvature="0"
       style="fill:none;stroke:#a84106;stroke-width:2;stroke-linecap:round;stroke-miterlimit:10;stroke-dasharray:8, 4" /><path
       stroke-miterlimit="10"
       d="m 173.36,217.945 c 0,0 214,364 581,312 0,0 138,-20 191,-39 53,-19 511,-104 589,-123 78,-19 258,-37 295,-38"
       id="path16"
       inkscape:connector-curvature="0"
       style="fill:none;stroke:#a84106;stroke-width:2;stroke-linecap:round;stroke-miterlimit:10;stroke-dasharray:8, 4" /></g><g
     id="Water_1_"
     transform="translate(-168.88839,-101.66666)"><path
       stroke-miterlimit="10"
       d="m 1127.36,115.945 c 0,0 -18,29 -7,65 11,36 30,66 35,142 5,76 44,142 42,148 -2,6 11,35 12,43 1,8 14,29 11,71 -3,42 3,53 3,62 0,9 2,19 22,25 20,6 52,15 63,39 11,24 22,36 -14,88 -36,52 -58,130 -73,158 -15,28 -17,60 -37,77 -20,17 -52,24 -68,27 -16,3 -36,14 -39,19"
       id="path19"
       inkscape:connector-curvature="0"
       style="fill:none;stroke:#7ba4d9;stroke-width:7;stroke-miterlimit:10" /><path
       stroke-miterlimit="10"
       d="m 1221.36,591.945 c 0,0 68,0 77,0 9,0 25,2 27,16 2,14 4,46 4,46 0,0 -1,2 -5,2 -4,0 -55,6 -64,19"
       id="path21"
       inkscape:connector-curvature="0"
       style="fill:none;stroke:#7ba4d9;stroke-width:7;stroke-miterlimit:10" /><polygon
       stroke-miterlimit="10"
       points="1326.36,876.945 1361.36,884.945 1362.36,894.945 1828.36,1008.945 1324.36,893.945 "
       id="polygon23"
       style="fill:#7ba4d9;stroke:#7ba4d9;stroke-width:7;stroke-miterlimit:10" /><path
       stroke-miterlimit="10"
       d="M 1269.36,670.945"
       id="path25"
       inkscape:connector-curvature="0"
       style="fill:#7ba4d9;stroke:#7ba4d9;stroke-width:7;stroke-miterlimit:10" /><path
       d="m 1130.36,140.612 c 0,0 3.001,-10 7.334,-9 4.333,1 7.999,6 7.666,10.667 -0.333,4.667 -3.667,16 -6,19 -2.333,3 0.333,7 3,9 2.667,2 3,5 1.667,7.667 -1.333,2.667 -1.667,6.667 -1.667,7.667 0,1 -2.334,11.667 -7,5 -4.666,-6.667 -4.333,-17 -2.333,-19.667 2,-2.667 0.667,-4.333 -1.333,-7.667 -2,-3.334 -1.334,-22.667 -1.334,-22.667 z"
       id="path27"
       inkscape:connector-curvature="0"
       style="fill:#7ba4d9" /><path
       d="m 1186.027,258.612 c 0,0 -4.001,-22 5.333,-23.333 9.334,-1.333 13.667,19 13.667,23.333 0,4.333 -0.334,17.667 -6.667,17.667 -6.333,0 -12.333,-17.667 -12.333,-17.667 z"
       id="path29"
       inkscape:connector-curvature="0"
       style="fill:#7ba4d9" /><polygon
       points="1268.36,164.945 1300.694,166.945 1300.694,180.612 1249.694,181.945 1249.694,153.945 1268.694,154.279 "
       id="polygon31"
       style="fill:#7ba4d9" /><polygon
       points="1203.028,558.945 1197.361,574.279 1179.361,574.612 1176.028,563.612 1196.361,550.279 "
       id="polygon33"
       style="fill:#7ba4d9" /><polygon
       points="1400.361,567.612 1393.361,567.279 1394.361,556.612 1400.361,556.945 "
       id="polygon35"
       style="fill:#7ba4d9" /><path
       d="m 1398.694,527.279 c -1,-1.667 5.333,3 2,6.333 -3.333,3.333 -7.333,7 -6.333,9.333 1,2.333 6.332,3 8.666,-1.333 2.334,-4.333 5.334,-6.667 6.667,-8.333 1.333,-1.666 1.333,-6.667 -1,-8.667 -2.333,-2 -6.667,-4.334 -8.667,-3.667 -2,0.667 -3.999,3.667 -1.666,5"
       id="path37"
       inkscape:connector-curvature="0"
       style="fill:#7ba4d9" /><path
       d="m 1466.361,526.612 c 0,0 -3.334,-7.333 3.666,-9.333 7,-2 9.667,10 9.667,10 0,0 2.333,5.333 9.333,8.667 7,3.334 11.001,8.333 9.334,9.333 -1.667,1 -7,2 -9,-1.667 -2,-3.667 0,-7.667 -6,-8.667 -6,-1 -10.666,0.333 -12,-0.667 -1.334,-1 -5,-5.332 -5,-7.666 z"
       id="path39"
       inkscape:connector-curvature="0"
       style="fill:#7ba4d9" /></g><g
     id="Gebouw"
     transform="translate(-168.88839,-101.66666)"><polygon
       points="925.36,708.945 884.36,739.945 841.36,778.945 819.36,762.945 806.36,744.945 825.36,678.945 823.36,621.945 901.36,609.945 "
       id="polygon42"
       style="fill:#d2cbbe" /><polygon
       points="927.693,684.945 929.36,689.278 935.026,696.278 975.693,655.945 958.693,643.278 951.693,638.612 945.36,643.945 956.36,654.278 944.693,667.945 944.693,671.612 946.36,674.612 936.693,684.612 933.693,683.612 940.36,675.278 933.36,649.945 945.693,648.278 943.693,644.612 947.026,639.612 928.026,620.612 915.026,622.278 918.36,652.278 "
       id="polygon44"
       style="fill:#d2cbbe" /><path
       d="m 906.693,602.612 c 0,0 1.666,0.333 4.333,-2.667 2.667,-3 5.667,1.666 5.667,3.333 0,1.667 2,8.667 -4.333,8.667 -6.333,0 -5,-3.334 -6,-4.667 -1,-1.333 -1.667,-3.666 0.333,-4.666 z"
       id="path46"
       inkscape:connector-curvature="0"
       style="fill:#d2cbbe" /><path
       d="m 948.693,605.278 15.667,-3.333 -0.333,-2.333 16,-2.667 15.667,14.667 4,23 -11,11.666 c 0,0 -38.333,-28.333 -39.333,-29.333 -1,-1 -5.667,-5.667 -5,-8.667 0.667,-3 4.332,-3 4.332,-3 z"
       id="path48"
       inkscape:connector-curvature="0"
       style="fill:#d2cbbe" /><path
       d="m 1004.027,597.612 c 0,0 -1.667,-7.333 3,-8 4.667,-0.667 16.333,-4.333 16.333,-4.333 0,0 4,1 5,1 1,0 15.667,-7 15.667,-7 0,0 0.333,1.667 3.333,1.667 3,0 7,-1.667 7,-1.667 l -0.666,-4.667 c 0,0 55.333,-12.667 59.333,-12.667 4,0 3,4 2,5 -1,1 -4.333,3 -7.333,4.667 -3,1.667 -2.666,5 -4,4.667 -1.334,-0.333 -4.667,-0.667 -4.667,-0.667 0,0 -9,2.333 -11,2.333 -2,0 -3.667,2 -5.667,1 -2,-1 -2.332,2.333 -4.666,2.333 -2.334,0 -4,3.333 -4,3.333 l -6,1.333 -3,1 v 3 l 4.333,-0.667 c 0.333,2 4,1.667 4,1.667 l 31.667,-12 6.333,3.333 3.667,5 -100,39 -3.667,-7 -2.333,-2.666 0.333,-2.667 1.667,-2 h -3 l -1.334,-6.667 z"
       id="path50"
       inkscape:connector-curvature="0"
       style="fill:#d2cbbe" /><polygon
       points="1113.694,580.945 1116.36,583.279 1122.694,579.279 1120.027,573.279 1115.027,573.945 1113.694,572.279 1111.36,573.945 "
       id="polygon52"
       style="fill:#d2cbbe" /><polygon
       points="1164.693,571.279 1163.027,576.612 1146.693,583.945 1140.36,554.945 1157.693,551.612 "
       id="polygon54"
       style="fill:#d2cbbe" /><polygon
       points="1277.36,545.279 1287.694,545.612 1289.694,554.279 1290.694,567.279 1281.694,567.945 1281.36,565.945 1279.027,565.945 1280.36,561.945 1283.36,560.612 1282.36,557.612 1278.36,556.945 1272.027,557.279 1266.36,533.279 1273.36,533.279 "
       id="polygon56"
       style="fill:#d2cbbe" /><polygon
       points="1307.027,547.945 1309.36,549.279 1310.36,553.279 1312.36,553.279 1308.694,536.279 1316.36,536.279 1318.027,549.279 1316.027,549.279 1317.36,551.945 1319.36,553.945 1320.694,562.612 1310.36,563.279 1306.36,562.612 1307.36,564.612 1304.027,565.279 1300.36,551.945 1298.36,551.945 1298.027,543.612 1306.36,542.279 "
       id="polygon58"
       style="fill:#d2cbbe" /><polygon
       points="1331.694,534.612 1335.36,534.612 1335.027,542.612 1331.027,542.612 1331.027,546.945 1329.36,550.945 1325.36,551.279 1323.027,540.612 1331.36,538.945 "
       id="polygon60"
       style="fill:#d2cbbe" /><polygon
       points="1347.027,513.945 1348.027,517.612 1353.694,518.279 1354.36,513.612 1358.694,511.612 1359.694,506.279 1355.36,506.279 1354.027,508.945 1349.36,510.279 1348.36,508.612 1339.36,509.945 1339.36,513.279 "
       id="polygon62"
       style="fill:#d2cbbe" /><polygon
       points="1342.694,536.279 1348.36,536.612 1347.694,548.945 1338.694,548.279 1338.694,539.945 1341.694,539.612 "
       id="polygon64"
       style="fill:#d2cbbe" /><polygon
       points="1297.027,613.612 1300.361,615.279 1301.694,620.612 1300.027,622.612 1303.361,626.945 1301.694,629.945 1291.694,622.612 1281.361,613.279 1283.694,610.279 1287.027,611.612 1290.694,608.612 "
       id="polygon66"
       style="fill:#d2cbbe" /><polygon
       points="1158.028,610.612 1165.028,610.612 1164.361,600.945 1180.028,597.279 1181.028,591.279 1156.695,592.612 "
       id="polygon68"
       style="fill:#d2cbbe" /><path
       d="m 1180.695,601.945 16.333,-0.667 1,5 4.333,1 1,28.667 h -5.333 l -1,4 -34.333,2.333 0.333,-5.333 c 0,0 -4.333,0 -4.333,-1 0,-1 -1,-20.667 -1,-20.667 l 5.333,0.334 2,16.333 1.667,0.333 v 3 l 24.333,-2.666 6.333,-2.667 v -2.667 l -1.333,-14.666 -1.667,-3 -14,-1 z"
       id="path70"
       inkscape:connector-curvature="0"
       style="fill:#d2cbbe" /><polygon
       points="1284.028,609.278 1281.361,613.279 1301.694,629.945 1304.695,628.945 1301.028,623.278 1301.694,620.612 1300.361,615.279 1290.694,608.612 1287.027,611.612 "
       id="polygon72"
       style="fill:#d2cbbe" /><polygon
       points="1199.695,652.612 1203.028,653.278 1203.695,659.945 1205.361,681.278 1197.695,681.945 1197.695,676.612 1197.028,658.612 1195.028,657.945 1195.028,655.278 1168.695,656.612 1169.028,660.278 1167.028,661.278 1167.361,669.945 1161.361,670.278 1161.028,656.278 1164.028,655.278 1165.695,650.612 1198.695,648.945 "
       id="polygon74"
       style="fill:#d2cbbe" /><path
       d="m 1162.695,674.612 c 2.666,0 9.333,-0.334 9.333,-0.334 l 0.333,4 h 3.667 l 0.333,3.334 h -4.666 l -0.667,5.666 -2,-0.333 -0.667,1.333 -4,0.334 z"
       id="path76"
       inkscape:connector-curvature="0"
       style="fill:#d2cbbe" /><polygon
       points="1223.028,691.945 1227.361,693.945 1218.361,746.945 1212.695,746.612 1218.695,701.945 1217.028,699.278 1217.695,691.945 1213.028,692.278 1211.361,693.612 1207.695,693.278 1211.028,683.945 1225.361,687.278 "
       id="polygon78"
       style="fill:#d2cbbe" /><polygon
       points="1212.361,765.945 1212.361,773.945 1201.695,773.612 1198.361,772.612 1198.361,764.612 1205.361,763.945 "
       id="polygon80"
       style="fill:#d2cbbe" /><polygon
       points="1171.695,765.945 1169.361,765.612 1170.028,775.612 1189.361,775.612 1189.028,770.278 1186.028,767.945 1186.361,762.278 1175.028,763.612 "
       id="polygon82"
       style="fill:#d2cbbe" /><path
       d="m 1165.028,692.612 10.333,-0.334 0.667,2.667 h 8 c 0,0 1.667,24.667 2.667,25 1,0.333 15.333,0.333 15.333,0.333 l 3,-9.333 1.667,1.333 -3.334,10.334 -3.333,4 -11.667,3 h -11.333 l 0.667,4.333 2.333,0.667 -1.333,4 -2.334,1 0.667,3.666 5,1 1.667,1.667 -1.667,1 -5,-0.333 v 1.666 l 2.667,1.334 0.333,2.333 -2.333,0.333 -2.667,4 3.333,1 -2.666,3.667 -3.667,-3 -3.667,-2 z"
       id="path84"
       inkscape:connector-curvature="0"
       style="fill:#d2cbbe" /><polygon
       points="1186.028,767.945 1189.028,770.278 1189.361,775.612 1171.028,776.945 1169.361,765.612 1175.028,763.612 1186.361,762.278 "
       id="polygon86"
       style="fill:#d2cbbe" /><polygon
       points="1212.361,765.945 1212.361,773.945 1201.695,773.612 1198.361,772.612 1198.361,764.612 1206.695,763.612 "
       id="polygon88"
       style="fill:#d2cbbe" /><path
       d="m 1238.695,688.945 20,3.333 -0.334,4.667 4,1 -5,27 -5.333,1.333 -9,-1 -0.667,-15.333 3,-9.333 2.667,0.333 -2,21 2.667,1.333 6,-21 -1,-2.666 v -2 l -12,-1 c 0,0 -3,3.666 -3,4.666 0,1 -3,26.667 -3,26.667 l -5,33.667 -1,5 26.333,3.666 2.667,-2 3.333,0.334 -1,8.333 -3,1.333 -2,-1.666 -30.667,-4.667 0.667,-5.333 -3.667,-1.667 11.334,-70.667 3.666,-0.333 z"
       id="path90"
       inkscape:connector-curvature="0"
       style="fill:#d2cbbe" /><polygon
       points="1296.361,740.278 1300.695,741.945 1298.028,762.278 1291.361,761.612 1293.028,746.278 1292.028,742.945 1291.695,740.612 1259.361,735.945 1258.028,737.945 1255.028,736.945 1256.695,728.612 1295.028,734.612 "
       id="polygon92"
       style="fill:#d2cbbe" /><polygon
       points="1289.028,783.945 1283.695,783.278 1283.695,787.945 1262.028,783.278 1263.695,774.945 1279.361,779.945 1281.028,777.945 1283.361,778.278 1287.028,762.278 1292.361,763.278 "
       id="polygon94"
       style="fill:#d2cbbe" /><line
       x1="1262.028"
       y1="768.612"
       x2="1258.6949"
       y2="768.27802"
       id="line96"
       style="fill:none" /><polygon
       points="1330.361,700.279 1325.361,700.945 1321.028,685.945 1327.028,685.945 "
       id="polygon98"
       style="fill:#d2cbbe" /><polygon
       points="1330.361,706.945 1335.361,706.945 1336.361,700.612 1329.361,701.945 "
       id="polygon100"
       style="fill:#d2cbbe" /><path
       d="m 1328.361,712.279 c 1.334,0 9.334,-2 9.334,-2 l 3.333,7.666 -12.333,1.667 z"
       id="path102"
       inkscape:connector-curvature="0"
       style="fill:#d2cbbe" /><polygon
       points="1345.361,740.279 1338.361,740.279 1338.028,736.612 1335.695,736.612 1335.695,734.945 1339.028,732.612 1344.028,731.612 "
       id="polygon104"
       style="fill:#d2cbbe" /><polygon
       points="1340.028,743.945 1342.695,744.279 1345.361,744.279 1344.695,750.945 1342.695,753.279 1337.028,751.945 1332.028,751.945 1332.361,748.945 1336.028,747.279 1336.695,741.945 1340.028,742.612 "
       id="polygon106"
       style="fill:#d2cbbe" /><polygon
       points="1308.361,801.612 1312.028,798.612 1306.695,792.945 1303.695,796.279 "
       id="polygon108"
       style="fill:#d2cbbe" /><polygon
       points="1318.028,795.612 1323.695,788.612 1320.028,787.279 1322.695,783.945 1326.695,785.279 1329.028,782.945 1328.695,780.612 1321.361,775.945 1319.695,777.279 1320.361,779.945 1317.695,781.945 1315.695,780.612 1310.028,787.279 "
       id="polygon110"
       style="fill:#d2cbbe" /><polygon
       points="1333.028,776.279 1325.361,775.279 1327.028,771.945 1325.028,770.945 1326.695,766.945 1337.361,772.945 "
       id="polygon112"
       style="fill:#d2cbbe" /><path
       d="m 1330.361,766.279 c 1,0 7.334,3.333 7.334,3.333 l 5,-15 -5.667,-2.667 -1.333,2 -5,-1 -3,5.334 3.333,2.333 z"
       id="path114"
       inkscape:connector-curvature="0"
       style="fill:#d2cbbe" /><polygon
       points="1213.695,784.946 1221.361,784.612 1224.028,783.279 1227.028,784.612 1245.028,786.612 1245.028,792.612 1246.361,794.279 1246.028,796.612 1242.361,796.946 1237.695,837.612 1222.695,835.946 1219.028,840.612 1221.695,841.612 1218.028,852.612 1242.361,865.946 1255.361,846.279 1264.028,848.612 1249.361,873.612 1242.028,868.946 1239.361,872.946 1204.695,852.279 1211.695,836.612 1216.361,837.612 1217.028,835.279 1206.695,833.946 1205.028,840.279 1203.695,843.946 1200.361,846.279 1196.361,847.946 1185.361,841.612 1186.028,839.279 1167.361,830.946 1170.695,823.279 1170.695,819.612 1176.028,817.279 1179.028,819.279 1180.361,822.612 1192.028,828.946 1194.028,826.946 1199.695,830.279 1203.361,829.946 1206.028,831.279 1208.361,830.279 1209.361,828.279 1202.695,826.946 1203.695,819.612 1234.028,823.279 1236.695,804.946 1233.361,802.279 1234.695,793.946 1207.028,790.612 1206.695,784.612 1211.361,781.612 "
       id="polygon116"
       style="fill:#d2cbbe" /><polygon
       points="1084.695,619.279 1072.695,622.613 1072.695,626.946 1074.361,627.279 1075.028,623.279 1084.028,622.946 1084.695,651.613 1075.028,651.946 1074.361,631.613 1072.695,630.613 1073.028,636.279 1069.361,629.279 1063.695,631.279 1067.695,634.946 1063.028,639.279 1059.695,636.279 1056.361,640.279 1061.028,648.279 1056.695,648.946 1049.361,639.279 1048.361,641.613 1056.028,652.279 1060.361,650.946 1062.361,653.946 1068.361,648.946 1081.361,662.613 1083.361,663.279 1080.361,669.946 1059.695,680.946 1027.028,643.946 1027.361,638.946 1022.695,634.946 1024.028,632.613 1079.028,608.946 "
       id="polygon118"
       style="fill:#d2cbbe" /><polygon
       points="1035.361,662.279 1022.028,671.613 1018.028,664.613 1006.361,647.946 1015.028,638.279 1021.695,639.613 "
       id="polygon120"
       style="fill:#d2cbbe" /><polygon
       points="1058.028,699.613 1061.695,697.279 1060.361,694.946 1075.028,689.613 1080.361,698.946 1048.028,716.279 1045.361,710.946 1049.028,707.613 1047.028,705.279 1055.361,698.946 "
       id="polygon122"
       style="fill:#d2cbbe" /><polygon
       points="1113.695,704.279 1124.695,727.279 1090.695,748.279 1107.361,779.279 1141.028,761.279 1155.361,760.279 1156.695,767.946 1153.695,769.613 1153.695,771.613 1157.361,771.946 1158.028,774.613 1148.695,776.613 1148.695,771.279 1143.028,771.279 1127.695,780.279 1133.028,790.613 1137.028,790.613 1142.695,801.279 1137.028,805.613 1133.361,803.946 1125.695,809.279 1128.028,813.279 1110.361,820.279 1078.361,759.613 1080.028,757.613 1078.695,755.613 1075.028,756.613 1052.361,716.613 1104.028,688.946 1111.028,701.613 "
       id="polygon124"
       style="fill:#d2cbbe" /><polygon
       points="1143.695,750.279 1117.361,765.946 1104.695,745.279 1132.028,729.279 "
       id="polygon126"
       style="fill:#d2cbbe" /><path
       d="m 1113.695,628.279 c 1.333,0 19.333,-2.666 19.333,-2.666 l -0.333,67.333 -22.667,-4.333 z"
       id="path128"
       inkscape:connector-curvature="0"
       style="fill:#d2cbbe" /><path
       d="m 1090.361,605.613 12,-4 22.334,-10.333 16.333,0.333 c 0,0 7,7 7,10 0,3 9,131 9,131 l -9,-1 v -4.667 l 1.667,-1 -0.334,-2.333 -4.333,-1 -1,-4 4.667,-0.334 v -2.333 l -3.667,-1 -0.333,-3.333 h 3.333 l -0.333,-6.667 -0.334,-5 -3.666,-1 -0.334,-3.333 2.667,-2.667 v -2.333 l -0.667,-6.334 -1,-1.333 2.667,-6.667 -7,0.667 -2,-10 3.667,1.333 3.333,0.667 -0.333,-3 -0.667,-11.667 -4.667,-1 1.334,-3.333 3,-1.333 v -2.667 l -1,-1.667 0.666,-3.666 -0.333,-4.334 h -4 l 0.667,-5.666 3.333,1 -0.667,-3.334 -3,-3 -1.666,-1 -1.667,-17.333 3.667,-2 -1.667,-4.667 -5.667,-0.667 -0.333,4 -5.333,0.666 v -3 l -6,2 -3.334,2.334 3,8.333 -0.666,5 -3.667,1.667 -7.333,1 -1.667,-5 v -4.667 l -7,3 -1,7 5.333,-1 v 3.333 l -3.333,2.334 0.667,2.333 -5.334,1 -1,-2.333 h -3.666 l 1,-9.667 z"
       id="path130"
       inkscape:connector-curvature="0"
       style="fill:#d2cbbe" /><polygon
       points="1098.361,654.613 1092.028,654.613 1091.695,648.946 1099.028,649.613 "
       id="polygon132"
       style="fill:#d2cbbe" /><path
       d="m 1094.695,665.946 c 2.333,0 10,0 10,0 l -1.667,4.333 -2.333,1 -0.334,2.667 -3,-0.333 v -1.667 l -4.666,-0.333 z"
       id="path134"
       inkscape:connector-curvature="0"
       style="fill:#d2cbbe" /><polygon
       points="1105.361,682.279 1102.361,686.279 1096.695,683.946 1093.361,684.946 1090.028,677.613 1092.028,675.613 "
       id="polygon136"
       style="fill:#d2cbbe" /><polygon
       points="1001.527,678.945 1006.36,680.278 1009.527,680.612 1022.527,706.778 1003.193,718.612 999.693,717.778 997.526,720.112 997.526,722.778 985.86,725.945 981.026,712.112 988.526,697.278 994.526,690.612 988.36,685.612 985.026,687.778 987.193,690.278 973.026,691.612 963.193,683.278 975.526,672.778 984.693,664.278 "
       id="polygon138"
       style="fill:none" /><path
       d="m 960.693,684.778 12,13.834 c 0,0 10.167,32.833 11.167,33.333 1,0.5 13.833,8 13.833,8 l 6.333,-2 4.166,6 7.667,4.333 13.167,-1.333 12.666,-6 7.167,12.5 23.334,42.833 -5.667,3.833 -4.167,-0.333 -7.166,12.667 10.5,24.833 -40.834,15.667 -1.833,-2.5 1,-2.667 -2.333,-6 -3.834,-3.5 -7.166,2.167 -1.334,9.666 -6.833,2.334 -14.667,-25.5 4.333,-2.5 -4.333,-14 -11.833,3.333 -11.833,-21.5 -3,-2.333 -4.667,-12.334 13.667,-6.666 -0.5,-4.333 -14.5,5.166 -19.333,-50.833 2,-1.833 0.333,-3.667 -2.833,-0.5 -4.5,-0.667 1.167,-3.666 6.333,-1.667 z"
       id="path140"
       inkscape:connector-curvature="0"
       style="fill:#d2cbbe" /><path
       d="m 963.193,683.278 21.5,-19.666 15,15 3.667,-2.167 3.167,3.167 16,27.166 -20,12.5 c 0,0 -3,-3.334 -4.667,-0.5 -1.667,2.834 -7,4.834 -7,4.834 l -5.167,1.5 -5.833,-22 9.167,-6.167 5.333,-7.167 -5.167,-5.166 -4.167,3.166 1.333,1.834 0.667,1.5 c 0,0 -11.667,1.166 -12.833,1.166 -1.166,0 -11,-9 -11,-9 z"
       id="path142"
       inkscape:connector-curvature="0"
       style="fill:#d2cbbe" /><polygon
       points="1039.194,736.278 1030.36,741.445 1026.36,742.445 1026.027,739.945 1026.527,737.778 1024.027,736.945 1023.027,735.278 1023.86,732.945 1023.027,723.445 1017.027,726.612 1014.527,721.778 1019.194,719.945 1016.694,715.112 1024.86,709.778 "
       id="polygon144"
       style="fill:#d2cbbe" /><polygon
       points="1012.194,728.445 1006.527,731.778 1003.194,722.445 1007.527,719.945 "
       id="polygon146"
       style="fill:#d2cbbe" /><polygon
       points="1022.027,742.778 1021.527,744.112 1018.86,744.112 1018.194,742.778 1015.86,743.945 1014.36,740.612 1019.027,738.112 "
       id="polygon148"
       style="fill:#d2cbbe" /><path
       d="m 1068.527,814.945 c 0.5,0 0.333,-5.499 5.5,-5.333 5.167,0.166 5.5,2.666 5.5,2.666 l 2.833,5.5 -8,3.667 -1.833,-1.5 -2.833,-0.167 c 0,0 -1.334,-4.833 -1.167,-4.833 z"
       id="path150"
       inkscape:connector-curvature="0"
       style="fill:#d2cbbe" /><path
       d="m 1003.36,867.611 c 0,0 -27,-42.5 -29.333,-46.833 -2.333,-4.333 -24.833,-36.167 -24.833,-36.167 l -15.167,9.334 -2,-1.334 -13.5,10.667 c 0,0 18,29.834 32,46.667 14,16.833 32.5,36 32.5,36 l 3.833,0.166 16.5,-16.5 z"
       id="path152"
       inkscape:connector-curvature="0"
       style="fill:#d2cbbe" /><path
       d="m 931.193,786.945 -16.333,12.5 -25.5,-47.333 -0.167,-4 16.333,-12.667 c 0,0 9.333,11.834 10.333,13.667 1,1.833 15.334,37.833 15.334,37.833 z"
       id="path154"
       inkscape:connector-curvature="0"
       style="fill:#d2cbbe" /><path
       d="m 884.36,755.445 c 0,0 16.833,38.499 35,63.333 18.167,24.834 51,64.5 51,64.5 l -62.333,56.667 -19.167,-25.5 -18.5,-23 -2.333,-8.333 -22.167,-25.167 -3.5,-2 -1.167,-1.333 8,-7.834 2.167,-3.666 16.167,-12.334 13,15.334 25.667,-21.834 -5.5,-7.833 -15.833,13.833 -8.833,-10.833 v -2.833 l -1.5,-1.5 -3.5,3.333 -6.833,-7.667 8,-7.167 -6.667,-6.666 -17.333,15.333 -8.333,-9 -2.667,2.333 3,3.5 -1.667,2.667 7.333,5 -4.167,5.667 5.667,3.333 1.5,-2.333 4.833,2.666 -2.333,3.834 -4,-2.667 -2.167,1.167 3,3.333 -10.333,9.833 -1.833,-2.166 1,-1.5 -17.167,-14 -0.5,2.666 16.167,17.834 -4,4.833 -16,-14.833 -0.167,-5.5 -2,-3 -0.667,3.5 0.167,4.833 -3.667,2.167 -35.5,-30.834 0.167,-2.833 -7.167,-12.333 c 0,0 3.667,-18.834 4.167,-18.834 0.5,0 14,3.834 14,3.834 l -1.833,9.5 h 3.333 l -1.667,5.166 c 0,0 11,-14 12.167,-13.333 1.167,0.667 11.333,9.833 11.333,9.833 0,0 -1.667,2.833 -1.167,3.5 0.5,0.667 5.333,4.5 5.333,4.5 l 1.5,-1 4.167,2 1.667,-2 -6.167,-3 -0.5,-3.5 -8.333,-7.666 3.667,-4.334 -2.667,-1 -3.667,4.334 -5.5,-5.667 12.167,-12.333 26.333,23.5 8.667,2.833 26.167,-26 z"
       id="path156"
       inkscape:connector-curvature="0"
       style="fill:#d2cbbe" /><path
       d="m 793.86,770.445 9.833,-11.333 c 0,0 -22.5,-17.833 -23.5,-19 -1,-1.167 -4.5,1.333 -4.5,1.333 l -3,15.5 z"
       id="path158"
       inkscape:connector-curvature="0"
       style="fill:#d2cbbe" /><polygon
       points="808.11,663.195 808.11,667.195 810.11,670.445 810.86,668.445 813.61,668.445 815.61,671.445 813.86,679.945 819.61,681.195 802.36,745.445 778.86,732.195 797.61,675.445 800.11,675.195 797.86,664.695 801.11,662.945 "
       id="polygon160"
       style="fill:#d2cbbe" /><path
       d="m 808.11,634.945 c 0,0 -5.25,21.25 1,22.75 6.25,1.5 11.75,-7.75 11.75,-12.25 0,-4.5 -3,-22.25 -4,-24 -1,-1.75 -5,-5.5 -6.5,1.25 -1.5,6.75 -2.25,12.25 -2.25,12.25 z"
       id="path162"
       inkscape:connector-curvature="0"
       style="fill:#d2cbbe" /><path
       d="m 703.11,629.445 20.5,-5.25 4.25,25.75 44.75,-11.25 c 0,0 11,-3.5 12.75,9.75 l -7.25,27 -14.25,-4.5 4.25,-10.75 -3.25,0.25 -0.25,-3.75 -40,11.5 3.5,15.75 5,1 2.25,6.75 -1.75,3.25 c 0,0 -14.25,-24.75 -14.75,-28.5 -0.5,-3.75 -4.75,-20.5 -4.75,-20.5 l -5.5,0.5 z"
       id="path164"
       inkscape:connector-curvature="0"
       style="fill:#d2cbbe" /><polygon
       points="755.61,747.695 741.11,744.445 738.11,740.945 738.36,738.195 742.11,737.695 745.36,725.695 743.86,722.195 744.61,720.445 747.11,720.195 759.61,683.695 772.61,689.695 "
       id="polygon166"
       style="fill:#d2cbbe" /><path
       d="M 743.86,617.945"
       id="path168"
       inkscape:connector-curvature="0"
       style="fill:#d2cbbe" /><polygon
       points="745.86,762.445 742.36,762.695 741.36,759.195 746.61,759.695 "
       id="polygon170"
       style="fill:#d2cbbe" /><path
       d="m 728.36,764.445 12,2.75 1,-3.5 5,0.75 0.5,5.5 1.75,1.25 c 0,0 -0.75,10.25 -3.75,11.5 -3,1.25 -6,1.25 -6,1.25 l -11.25,-4.5 z"
       id="path172"
       inkscape:connector-curvature="0"
       style="fill:#d2cbbe" /><path
       d="m 699.36,544.445 c 1.5,0 14.5,-0.75 14.5,-0.75 l 2.25,6.5 34,-3.25 6,-0.25 2.75,0.5 1.5,-2.75 0.25,-3.75 h 7.25 l 20.25,51 -3,2.25 -15.5,0.5 -3.75,-0.75 -2,0.75 0.5,1.75 -10,-0.75 -0.5,-2 -6,0.25 1,2.75 -32.5,3.5 v -3.25 l -5.25,0.5 -1,3.25 -10.5,0.5 -2.75,-44.75 4.75,-0.5 z"
       id="path174"
       inkscape:connector-curvature="0"
       style="fill:#d2cbbe" /><path
       d="m 789.86,535.695 34,-5 4,16 c 0,0 -10,9.75 -3.5,21.5 6.5,11.75 14.75,11.5 14.75,11.5 l 0.75,11.75 c 0,0 -27.25,6 -27.25,5 0,-1 -22.75,-60.75 -22.75,-60.75 z"
       id="path176"
       inkscape:connector-curvature="0"
       style="fill:#d2cbbe" /><polygon
       points="888.86,583.445 849.61,588.945 846.36,535.695 881.86,531.695 "
       id="polygon178"
       style="fill:#d2cbbe" /><path
       d="m 818.11,497.695 14.25,-2.75 1.25,-5.25 8,-7 c 0,0 0.25,7.75 0.25,8.5 0,0.75 16.25,-4.5 16.25,-4.5 v -4 l 3,-0.75 -18,-56.25 -41.75,12 z"
       id="path180"
       inkscape:connector-curvature="0"
       style="fill:#d2cbbe" /><path
       d="m 761.11,448.695 c 1.25,0 34,-11.75 34,-11.75 l 19.25,61.75 -33.25,10 z"
       id="path182"
       inkscape:connector-curvature="0"
       style="fill:#d2cbbe" /><path
       d="m 724.36,477.695 c 1.25,-0.25 9,-1.75 9,-1.75 l 4.25,19 2.75,0.75 2.75,6.75 -10.25,1.75 -2.75,-3.5 z"
       id="path184"
       inkscape:connector-curvature="0"
       style="fill:#d2cbbe" /><polygon
       points="912.86,387.695 897.36,394.945 895.36,386.445 902.61,382.945 "
       id="polygon186"
       style="fill:#d2cbbe" /><path
       d="m 917.86,446.445 7,-0.75 -0.5,-4 21.75,-2.75 -0.75,-2.75 13.25,-3 2,3.5 9.75,-1.25 -0.25,-2.5 20.5,-4.5 2.25,9.25 21.75,86.25 c 0,0 5.75,-1.75 7.75,-1.5 2,0.25 3,4.5 3,4.5 l -9.5,2.5 -0.25,3 -31.75,3.5 -0.5,-5.25 -3,-1 1,-5.25 1.5,-1.75 -1.25,-5 -3.75,0.75 v -4 l -3,-0.75 0.5,-3.25 4.75,-0.25 -0.5,-6 -12.5,-53.75 -9.75,1 -3,-3.5 -21.5,5.5 -12.25,0.25 -3.5,-4.75 z"
       id="path188"
       inkscape:connector-curvature="0"
       style="fill:#d2cbbe" /><path
       d="m 907.86,526.195 c 3,0 37.75,-7.5 37.75,-7.5 l 2.75,26.5 -30.25,4.75 z"
       id="path190"
       inkscape:connector-curvature="0"
       style="fill:#d2cbbe" /><polygon
       points="969.61,549.695 970.36,555.945 959.61,564.945 953.61,565.195 955.11,557.195 964.86,549.195 "
       id="polygon192"
       style="fill:#d2cbbe" /><path
       d="m 1027.11,534.945 c 1.25,-0.25 13.75,-3 13.75,-3 l 4.75,22.75 -14.25,2.5 z"
       id="path194"
       inkscape:connector-curvature="0"
       style="fill:#d2cbbe" /><polygon
       points="1060.36,519.195 1095.61,513.195 1098.36,523.195 1083.86,526.195 1082.11,529.695 1076.11,530.445 1076.11,540.195 1087.61,539.445 1088.36,536.695 1099.61,534.695 1100.36,536.445 1117.36,532.445 1120.36,538.195 1064.86,552.445 1061.86,551.195 1053.61,553.945 1048.86,534.445 1047.86,525.695 1032.11,526.695 1032.36,519.945 1060.36,515.945 "
       id="polygon196"
       style="fill:#d2cbbe" /><polygon
       points="1107.11,501.195 1072.61,503.695 1072.11,496.195 1107.11,492.195 "
       id="polygon198"
       style="fill:#d2cbbe" /><path
       d="m 1112.36,492.445 c 1.25,0 9.75,-2 9.75,-2 l 0.25,9 h -8.5 z"
       id="path200"
       inkscape:connector-curvature="0"
       style="fill:#d2cbbe" /><polygon
       points="1188.11,522.195 1136.36,536.195 1128.11,504.945 1181.36,491.945 "
       id="polygon202"
       style="fill:#d2cbbe" /><polygon
       points="1273.61,474.445 1292.86,471.195 1290.61,457.695 1427.61,427.695 1427.61,431.695 1461.61,423.695 1462.61,427.695 1455.86,429.945 1458.11,441.195 1291.36,477.695 1292.11,479.195 1311.11,475.695 1315.11,498.695 1254.61,512.945 1249.36,486.945 1273.86,482.445 "
       id="polygon204"
       style="fill:#d2cbbe" /><path
       d="m 1251.86,472.445 c 2.25,0 9.5,-1.75 9.5,-1.75 l 0.5,8 -7,1.5 z"
       id="path206"
       inkscape:connector-curvature="0"
       style="fill:#d2cbbe" /><path
       d="m 1463.61,423.445 c 0.75,-0.5 5.5,-0.25 5.5,-0.25 l -0.75,2.75 -2.5,1.5 -2.25,-0.75 z"
       id="path208"
       inkscape:connector-curvature="0"
       style="fill:#d2cbbe" /><polygon
       points="1480.36,424.945 1471.86,426.945 1471.36,421.195 1478.86,420.445 "
       id="polygon210"
       style="fill:#d2cbbe" /><polygon
       points="1535.36,411.195 1647.36,385.695 1651.86,397.945 1538.61,423.945 1537.61,421.195 1491.61,431.445 1489.36,418.195 1535.36,407.945 "
       id="polygon212"
       style="fill:#d2cbbe" /><polygon
       points="1580.61,397.195 1538.61,407.945 1535.11,403.445 1579.11,393.945 "
       id="polygon214"
       style="fill:#d2cbbe" /><path
       d="m 966.36,366.112 10.833,-2.5 c 0,0 3.167,21.166 9.667,24.333 0,0 -4.667,0.167 -5.167,-0.167 -0.5,-0.334 5,16.833 5,18.5 0,1.667 -2.167,3.667 -2.167,3.667 l -3.5,2 -0.5,-1.833 -1.667,2.333 -0.667,2 -2.167,-0.167 -6.5,-25.833 1.833,-1.5 z"
       id="path216"
       inkscape:connector-curvature="0"
       style="fill:#d2cbbe" /><polygon
       points="1007.86,390.112 998.527,395.779 988.027,357.779 1000.86,355.279 "
       id="polygon218"
       style="fill:#d2cbbe" /><polygon
       points="995.36,422.779 1000.027,415.445 997.693,411.112 988.86,418.779 "
       id="polygon220"
       style="fill:#d2cbbe" /><polygon
       points="1037.027,405.445 1032.86,408.779 1036.027,424.112 1022.194,424.445 1016.527,426.279 1016.194,428.445 1004.86,431.612 1000.694,405.945 1031.694,380.779 "
       id="polygon222"
       style="fill:#d2cbbe" /><polygon
       points="1084.527,415.445 1051.527,422.945 1040.36,374.112 1069.193,350.112 "
       id="polygon224"
       style="fill:#d2cbbe" /><path
       d="m 1087.527,353.112 c 0.833,0 28.5,-6.167 28.5,-6.167 l -1.167,10.167 -7.833,2.5 2.833,20.5 -7,17 -4,2.667 z"
       id="path226"
       inkscape:connector-curvature="0"
       style="fill:#d2cbbe" /><polygon
       points="1127.36,384.445 1129.36,387.279 1128.527,396.779 1107.027,401.945 1109.86,390.112 1111.527,385.445 1111.86,387.945 "
       id="polygon228"
       style="fill:#d2cbbe" /><path
       d="m 1101.194,427.445 c 0.666,0 19.833,-3.833 19.833,-3.833 l 1.167,6.333 -23,5.667 z"
       id="path230"
       inkscape:connector-curvature="0"
       style="fill:#d2cbbe" /><polygon
       points="1154.194,452.445 1131.527,458.279 1131.86,451.779 1152.694,446.945 "
       id="polygon232"
       style="fill:#d2cbbe" /><path
       d="m 1082.36,259.445 c 0,0 -0.5,-21.5 13,-21 13.5,0.5 14.333,22.667 14.333,22.667 0,0 -1.332,18 -13.666,17.833 -12.334,-0.167 -13.667,-19.5 -13.667,-19.5 z"
       id="path234"
       inkscape:connector-curvature="0"
       style="fill:#d2cbbe" /><polygon
       points="978.027,264.779 989.693,261.279 993.693,274.945 982.193,278.445 983.86,280.945 953.86,287.945 952.527,286.612 950.027,286.945 950.693,288.779 939.86,292.279 938.693,289.612 925.193,292.779 922.36,278.279 939.193,274.279 941.527,275.779 963.693,269.945 963.193,263.779 977.36,258.612 "
       id="polygon236"
       style="fill:#d2cbbe" /><polygon
       points="993.527,293.279 972.027,298.945 970.693,294.612 969.027,291.279 971.193,290.279 971.527,285.612 990.36,281.612 "
       id="polygon238"
       style="fill:#d2cbbe" /><polygon
       points="942.526,303.612 929.36,306.279 928.526,309.612 951.193,303.445 950.36,301.945 953.36,300.945 951.86,291.612 940.026,293.779 "
       id="polygon240"
       style="fill:#d2cbbe" /><path
       d="m 929.193,311.279 c 0.833,0 22.5,-5.167 22.5,-5.167 l 1.333,4.167 19.5,-4.5 -0.167,-5.5 10,-1.667 0.667,3.667 7.667,-1 2.833,10.5 c 0,0 -43.833,11.167 -43.833,10.667 0,-0.5 -1.167,-4.833 -1.167,-4.833 0,0 -15.667,3.667 -16.333,4 -0.666,0.333 -3,-10.334 -3,-10.334 z"
       id="path242"
       inkscape:connector-curvature="0"
       style="fill:#d2cbbe" /><path
       d="m 699.86,334.945 c 1.25,0 11.75,0.25 11.75,0.25 l -4.5,-6 11.5,-4 2,3.25 3.25,-0.75 5,8 1.75,-3.75 -1.25,-9.25 2.75,-1 -2.25,-3 24.75,-7.75 5.25,10.5 -1.75,2.25 1.75,1.75 1.75,0.5 0.5,3.25 -1.25,1.75 2.25,3.5 3,3.5 2.5,11.75 9.5,-2.5 -4,-11 39.25,-13.25 3.25,3.75 -3.75,3.25 3.75,5.5 -18.75,6.5 4.25,19 -26.75,9 -5.5,-15.75 -6.75,4.5 -4.75,-9.75 c 0,0 -3,-6 -3,-6.75 0,-0.75 1.5,-3.25 1.5,-3.25 l -1,-2 -3.5,1 -0.5,4.25 -14,3.25 -4.5,-3 -2.5,0.75 0.5,9 -10.25,4.75 -3.75,-14 h -14.25 z"
       id="path244"
       inkscape:connector-curvature="0"
       style="fill:#d2cbbe" /><polygon
       points="669.36,355.695 668.36,358.945 673.36,371.195 676.61,371.695 677.36,373.945 672.61,374.445 678.61,390.445 688.36,386.695 692.36,380.195 694.86,380.945 699.86,382.695 708.61,364.945 690.36,357.445 684.11,368.945 678.36,371.945 678.86,368.445 681.61,367.195 678.11,355.195 697.36,347.195 692.86,337.695 667.86,348.445 "
       id="polygon246"
       style="fill:#d2cbbe" /><polygon
       points="717.86,354.695 708.86,359.195 707.86,353.195 716.61,349.445 "
       id="polygon248"
       style="fill:#d2cbbe" /><polygon
       points="737.11,375.695 730.86,379.445 727.61,378.945 721.36,360.445 728.86,356.945 "
       id="polygon250"
       style="fill:#d2cbbe" /><path
       d="m 746.61,371.945 c 0,0 15,-8 15.75,-8 0.75,0 7,8.75 7,8.75 l -12,5.25 -0.25,4.25 -13,3.25 -1,-2 -2.75,0.5 v -4 l 5,-3 z"
       id="path252"
       inkscape:connector-curvature="0"
       style="fill:#d2cbbe" /><polygon
       points="711.86,390.445 676.11,401.195 663.36,370.445 650.86,372.195 653.11,381.445 656.61,382.195 657.11,388.695 657.36,392.445 659.36,393.445 665.11,407.695 671.61,408.195 674.61,412.195 688.61,407.195 690.86,411.695 704.36,407.445 703.86,403.695 710.86,402.945 713.11,404.945 723.36,400.445 725.36,396.695 724.36,394.945 725.86,393.695 725.36,391.445 721.36,391.945 722.61,389.945 716.86,388.195 "
       id="polygon254"
       style="fill:#d2cbbe" /><polygon
       points="658.36,359.445 648.36,362.445 651.61,368.445 659.86,364.945 "
       id="polygon256"
       style="fill:#d2cbbe" /></g><g
     id="Grote_weg_1_"
     transform="translate(-168.88839,-101.66666)"><path
       stroke-miterlimit="10"
       d="m 643.36,1082.945 -135,-144 c -43,-41 -35,-69 -35,-69 -1,-23 21,-66 21,-71 0,-5 -10,-117 -10,-117 -5,-63 12,-78 15,-84 3,-6 103,-131 103,-131 14,-20 37,-25 37,-25 0,0 107,-45 246,-84 139,-39 169,-40 169,-40 10,-1 46,-4 79,-6 33,-2 63,-5 63,-5 0,0 103,-14 305,-35 202,-21 322.9653,-65.10744 322.9653,-65.10744"
       id="path259"
       inkscape:connector-curvature="0"
       style="fill:none;stroke:#ff701f;stroke-width:7;stroke-miterlimit:10"
       sodipodi:nodetypes="cccscsccscscsc" /><path
       stroke-miterlimit="10"
       d="m 1827.2542,234.01607 c 0,0 -46.8942,6.92893 -65.8942,12.92893 -19,6 -98,14 -106,15 l -468,57 c 0,0 -41,6 -62,6 -21,0 -63,7 -63,7 l -243,58 -202,77 c 0,0 -23,10 -32,20 -9,10 -43,70 -63,94 0,0 -44,40 -37,108"
       id="path261"
       inkscape:connector-curvature="0"
       style="fill:none;stroke:#ff701f;stroke-width:7;stroke-miterlimit:10"
       sodipodi:nodetypes="csccscccscc" /><path
       stroke-miterlimit="10"
       d="m 1067.36,109.945 c 0,0 -25,82 -26,135 l 8,88"
       id="path263"
       inkscape:connector-curvature="0"
       style="fill:none;stroke:#ff701f;stroke-width:7;stroke-miterlimit:10" /><path
       stroke-miterlimit="10"
       d="m 1026.36,340.945 c 0,0 -10,-73 -11,-106 -1,-33 23,-122 23,-122"
       id="path265"
       inkscape:connector-curvature="0"
       style="fill:none;stroke:#ff701f;stroke-width:7;stroke-miterlimit:10" /><path
       stroke-miterlimit="10"
       d="m 871.36,113.945 c 0,0 -18,181 -14,218 0,0 10,99 22,148 12,49 22,100 52,109 30,9 83,-12 83,-12 l 815,-177"
       id="path267"
       inkscape:connector-curvature="0"
       style="fill:none;stroke:#ff701f;stroke-width:7;stroke-miterlimit:10" /><path
       stroke-miterlimit="10"
       d="m 855.36,113.945 c 0,0 -20,196 -19,221 0,0 0,24 19,80 19,56 36,115 36,115"
       id="path269"
       inkscape:connector-curvature="0"
       style="fill:none;stroke:#ff701f;stroke-width:7;stroke-miterlimit:10" /><path
       stroke-miterlimit="10"
       d="m 466.36,118.945 c 6,8 204,310 204,310 l -4,19"
       id="path271"
       inkscape:connector-curvature="0"
       style="fill:none;stroke:#ff701f;stroke-width:7;stroke-miterlimit:10" /><path
       stroke-miterlimit="10"
       d="m 653.36,452.945 c 0,0 -21,-63 -109,-215"
       id="path273"
       inkscape:connector-curvature="0"
       style="fill:none;stroke:#ff701f;stroke-width:7;stroke-miterlimit:10" /><path
       stroke-miterlimit="10"
       d="m 739.36,401.945 c 0,0 -6,16 -6,21 0,5 61,159 61,159 0,0 9,16 -16,18 l -78,10 c 0,0 -14,6 -50,-3 -36,-9 -103,-30 -103,-30 l -31,-15 c 0,0 -154,-110 -168,-124 -14,-14 -126,-118 -130,-121 -4,-3 -17,-6 -17,-6 0,0 -22,0 -25,-4"
       id="path275"
       inkscape:connector-curvature="0"
       style="fill:none;stroke:#ff701f;stroke-width:7;stroke-miterlimit:10" /><path
       stroke-miterlimit="10"
       d="m 999.36,1082.945 c 0,0 -85,-139 -152,-200 -67,-61 -109,-65 -88,-128 21,-63 29,-77 35,-99 0,0 13,-46 -2,-80"
       id="path277"
       inkscape:connector-curvature="0"
       style="fill:none;stroke:#ff701f;stroke-width:7;stroke-miterlimit:10" /><path
       stroke-miterlimit="10"
       d="m 170.36,780.945 41,-19 c 0,0 16,-12 47,-1 0,0 34,15 79,17 45,2 370,48 370,48 0,0 55,10 58,-11"
       id="path279"
       inkscape:connector-curvature="0"
       style="fill:none;stroke:#ff701f;stroke-width:7;stroke-miterlimit:10" /><path
       stroke-miterlimit="10"
       d="m 171.36,479.945 c 0,0 60,-11 137,71 77,82 115,127 115,164 l 5,73"
       id="path281"
       inkscape:connector-curvature="0"
       style="fill:none;stroke:#ff701f;stroke-width:7;stroke-miterlimit:10" /><path
       stroke-miterlimit="10"
       d="m 1280.36,1077.945 c 0,0 8,-42 -34,-81 -42,-39 -67,-44 -97,-94 -30,-50 -117,-197 -120,-204 -3,-7 -19,-30 -28,-35 l -30,-22 c 0,0 -39,-23 -48,-57"
       id="path283"
       inkscape:connector-curvature="0"
       style="fill:none;stroke:#ff701f;stroke-width:7;stroke-miterlimit:10" /><path
       stroke-miterlimit="10"
       d="M 1825.36,1021.945 1559.36,960 c 0,0 -9,0 -16,0 -7,0 -271,-65.055 -271,-65.055 0,0 -107,-58 -113,-61 -6,-3 -31,-15 -49,4"
       id="path285"
       inkscape:connector-curvature="0"
       style="fill:none;stroke:#ff701f;stroke-width:7;stroke-miterlimit:10" /><path
       stroke-miterlimit="10"
       d="m 1827.36,625.945 -339,289 c 0,0 -5,8 -7,24 -2,16 -3,14.109 -11,21.055 -8,6.946 -161,122.945 -161,122.945"
       id="path287"
       inkscape:connector-curvature="0"
       style="fill:none;stroke:#ff701f;stroke-width:7;stroke-miterlimit:10" /><path
       stroke-miterlimit="10"
       d="m 798.36,626.945 c 0,0 6,-12 -14,-16 -20,-4 -70,7 -70,7 0,0 -24,6 -39,5 -15,-1 -147,-37 -153,-42 -6,-5 -25,-17 -25,-17 0,0 -52,-43 -65,-51 -13,-8 -77,-54 -85,-59 -8,-5 -92,-87 -104,-96 -12,-9 -62,-33 -71,-34"
       id="path289"
       inkscape:connector-curvature="0"
       style="fill:none;stroke:#ff701f;stroke-width:7;stroke-miterlimit:10" /><path
       stroke-miterlimit="10"
       d="m 172.36,353.945 c 0,0 82,-79 95,-90 13,-11 19,-29 27,-34 8,-5 68,-13 83,-14 15,-1 38,-12 69,12 31,24 33,43 60,22 27,-21 32,-24 32,-24"
       id="path291"
       inkscape:connector-curvature="0"
       style="fill:none;stroke:#ff701f;stroke-width:7;stroke-miterlimit:10" /></g><g
     id="Kleine_weg"
     transform="translate(-168.88839,-101.66666)"><path
       stroke-miterlimit="10"
       d="m 1167.36,1080.945 -5,-12 31,-27 38,-60 35,-92 c 0,0 27,-59 51,-81 24,-22 46,-42 34,-98 0,0 -22,-83 -12,-135 0,0 -24,1 -34,2 0,0 -32,8 -42,-11 -10,-19 -18,-41 -18,-41"
       id="path294"
       inkscape:connector-curvature="0"
       style="fill:none;stroke:#ff701f;stroke-width:4;stroke-miterlimit:10" /><path
       stroke-miterlimit="10"
       d="m 1826.36,514.945 c 0,0 -48,35 -59,38 -11,3 -38,5 -65,3 -27,-2 -49,-2 -117,8 -68,10 -59,14 -76,14 -17,0 -170,-2 -170,-2"
       id="path296"
       inkscape:connector-curvature="0"
       style="fill:none;stroke:#ff701f;stroke-width:4;stroke-miterlimit:10" /><path
       stroke-miterlimit="10"
       d="m 659.36,1081.945 c 0,0 26,-26 33,-32 7,-6 7,-9 30,-12 23,-3 60,-18 60,-18 l 80,-29 c 0,0 8,-6 20,-14 12,-8 28,-25 28,-25"
       id="path298"
       inkscape:connector-curvature="0"
       style="fill:none;stroke:#ff701f;stroke-width:4;stroke-miterlimit:10" /><path
       stroke-miterlimit="10"
       d="m 1265.86,572.945 -17.5,10 -97.5,5 12.5,188.5 8,27 -13,7 c 0,0 -9,10.5 -4.5,17.5"
       id="path300"
       inkscape:connector-curvature="0"
       style="fill:none;stroke:#ff701f;stroke-width:4;stroke-miterlimit:10" /><line
       stroke-miterlimit="10"
       x1="1825.36"
       y1="997.44501"
       x2="1487.86"
       y2="920.94501"
       id="line302"
       style="fill:none;stroke:#ff701f;stroke-width:4;stroke-miterlimit:10" /><path
       stroke-miterlimit="10"
       d="m 1737.86,975.445 21.5,-89 c 0,0 2.5,-12 0,-17 -2.5,-5 -91.5,-109 -91.5,-109"
       id="path304"
       inkscape:connector-curvature="0"
       style="fill:none;stroke:#ff701f;stroke-width:4;stroke-miterlimit:10" /></g></svg>